<?xml version="1.0" encoding="UTF-8" standalone="no"?>
<!DOCTYPE svg PUBLIC "-//W3C//DTD SVG 1.1//EN" "http://www.w3.org/Graphics/SVG/1.1/DTD/svg11.dtd">
<svg xmlns:xl="http://www.w3.org/1999/xlink" xmlns:dc="http://purl.org/dc/elements/1.1/" xmlns="http://www.w3.org/2000/svg" version="1.1" viewBox="2305.5 8749 575 321" width="575" height="321">
  <defs/>
  <metadata> Produced by OmniGraffle 7.19.4\n2022-03-03 23:56:31 +0000</metadata>
  <g id="02_nearby_friends" stroke="none" stroke-dasharray="none" fill="none" fill-opacity="1" stroke-opacity="1">
    <title>02.nearby friends</title>
    <g id="02_nearby_friends_Layer_1">
      <title>Layer 1</title>
      <g id="Group_28">
        <g id="Graphic_27">
          <path d="M 2357.64 8758.36 C 2369.4534 8770.173 2369.4534 8789.327 2357.64 8801.14 C 2345.8266 8812.953 2326.6734 8812.953 2314.86 8801.14 C 2303.0466 8789.327 2303.0466 8770.173 2314.86 8758.36 C 2326.6734 8746.547 2345.8266 8746.547 2357.64 8758.36" fill="white"/>
          <path d="M 2357.64 8758.36 C 2369.4534 8770.173 2369.4534 8789.327 2357.64 8801.14 C 2345.8266 8812.953 2326.6734 8812.953 2314.86 8801.14 C 2303.0466 8789.327 2303.0466 8770.173 2314.86 8758.36 C 2326.6734 8746.547 2345.8266 8746.547 2357.64 8758.36" stroke="black" stroke-linecap="round" stroke-linejoin="round" stroke-width="1"/>
        </g>
        <g id="Graphic_26">
          <title>Phone iPhone</title>
          <path d="M 2344.25 8757.25 L 2328.25 8757.25 C 2325.49 8757.25 2323.25 8759.49 2323.25 8762.25 L 2323.25 8796.25 C 2323.25 8799.01 2325.49 8801.25 2328.25 8801.25 L 2344.25 8801.25 C 2347.01 8801.25 2349.25 8799.01 2349.25 8796.25 L 2349.25 8762.25 C 2349.25 8759.49 2347.01 8757.25 2344.25 8757.25 Z M 2336.25 8799.25 C 2334.59 8799.25 2333.25 8797.91 2333.25 8796.25 C 2333.25 8794.59 2334.59 8793.25 2336.25 8793.25 C 2337.91 8793.25 2339.25 8794.59 2339.25 8796.25 C 2339.25 8797.91 2337.91 8799.25 2336.25 8799.25 Z M 2345.25 8791.25 L 2327.25 8791.25 L 2327.25 8763.25 L 2345.25 8763.25 L 2345.25 8791.25 Z" fill="black"/>
        </g>
      </g>
      <g id="Group_29">
        <g id="Graphic_31">
          <circle cx="2552.25" cy="8822.75" r="30.2500483365329" fill="white"/>
          <circle cx="2552.25" cy="8822.75" r="30.2500483365329" stroke="black" stroke-linecap="round" stroke-linejoin="round" stroke-width="1"/>
        </g>
        <g id="Graphic_30">
          <title>Phone iPhone</title>
          <path d="M 2560.25 8800.25 L 2544.25 8800.25 C 2541.49 8800.25 2539.25 8802.49 2539.25 8805.25 L 2539.25 8839.25 C 2539.25 8842.01 2541.49 8844.25 2544.25 8844.25 L 2560.25 8844.25 C 2563.01 8844.25 2565.25 8842.01 2565.25 8839.25 L 2565.25 8805.25 C 2565.25 8802.49 2563.01 8800.25 2560.25 8800.25 Z M 2552.25 8842.25 C 2550.59 8842.25 2549.25 8840.91 2549.25 8839.25 C 2549.25 8837.59 2550.59 8836.25 2552.25 8836.25 C 2553.91 8836.25 2555.25 8837.59 2555.25 8839.25 C 2555.25 8840.91 2553.91 8842.25 2552.25 8842.25 Z M 2561.25 8834.25 L 2543.25 8834.25 L 2543.25 8806.25 L 2561.25 8806.25 L 2561.25 8834.25 Z" fill="black"/>
        </g>
      </g>
      <g id="Group_32">
        <g id="Graphic_34">
          <circle cx="2471.25" cy="8892.75" r="30.2500483365327" fill="white"/>
          <circle cx="2471.25" cy="8892.75" r="30.2500483365327" stroke="black" stroke-linecap="round" stroke-linejoin="round" stroke-width="1"/>
        </g>
        <g id="Graphic_33">
          <title>Phone iPhone</title>
          <path d="M 2479.25 8870.25 L 2463.25 8870.25 C 2460.49 8870.25 2458.25 8872.49 2458.25 8875.25 L 2458.25 8909.25 C 2458.25 8912.01 2460.49 8914.25 2463.25 8914.25 L 2479.25 8914.25 C 2482.01 8914.25 2484.25 8912.01 2484.25 8909.25 L 2484.25 8875.25 C 2484.25 8872.49 2482.01 8870.25 2479.25 8870.25 Z M 2471.25 8912.25 C 2469.59 8912.25 2468.25 8910.91 2468.25 8909.25 C 2468.25 8907.59 2469.59 8906.25 2471.25 8906.25 C 2472.91 8906.25 2474.25 8907.59 2474.25 8909.25 C 2474.25 8910.91 2472.91 8912.25 2471.25 8912.25 Z M 2480.25 8904.25 L 2462.25 8904.25 L 2462.25 8876.25 L 2480.25 8876.25 L 2480.25 8904.25 Z" fill="black"/>
        </g>
      </g>
      <g id="Group_35">
        <g id="Graphic_37">
          <circle cx="2395.25" cy="9017.75" r="30.2500483365333" fill="white"/>
          <circle cx="2395.25" cy="9017.75" r="30.2500483365333" stroke="black" stroke-linecap="round" stroke-linejoin="round" stroke-width="1"/>
        </g>
        <g id="Graphic_36">
          <title>Phone iPhone</title>
          <path d="M 2403.25 8995.25 L 2387.25 8995.25 C 2384.49 8995.25 2382.25 8997.49 2382.25 9000.25 L 2382.25 9034.25 C 2382.25 9037.01 2384.49 9039.25 2387.25 9039.25 L 2403.25 9039.25 C 2406.01 9039.25 2408.25 9037.01 2408.25 9034.25 L 2408.25 9000.25 C 2408.25 8997.49 2406.01 8995.25 2403.25 8995.25 Z M 2395.25 9037.25 C 2393.59 9037.25 2392.25 9035.91 2392.25 9034.25 C 2392.25 9032.59 2393.59 9031.25 2395.25 9031.25 C 2396.91 9031.25 2398.25 9032.59 2398.25 9034.25 C 2398.25 9035.91 2396.91 9037.25 2395.25 9037.25 Z M 2404.25 9029.25 L 2386.25 9029.25 L 2386.25 9001.25 L 2404.25 9001.25 L 2404.25 9029.25 Z" fill="black"/>
        </g>
      </g>
      <g id="Group_38">
        <g id="Graphic_40">
          <circle cx="2651.75" cy="8963.25" r="30.2500483365329" fill="white"/>
          <circle cx="2651.75" cy="8963.25" r="30.2500483365329" stroke="black" stroke-linecap="round" stroke-linejoin="round" stroke-width="1"/>
        </g>
        <g id="Graphic_39">
          <title>Phone iPhone</title>
          <path d="M 2659.75 8940.75 L 2643.75 8940.75 C 2640.99 8940.75 2638.75 8942.99 2638.75 8945.75 L 2638.75 8979.75 C 2638.75 8982.51 2640.99 8984.75 2643.75 8984.75 L 2659.75 8984.75 C 2662.51 8984.75 2664.75 8982.51 2664.75 8979.75 L 2664.75 8945.75 C 2664.75 8942.99 2662.51 8940.75 2659.75 8940.75 Z M 2651.75 8982.75 C 2650.09 8982.75 2648.75 8981.41 2648.75 8979.75 C 2648.75 8978.09 2650.09 8976.75 2651.75 8976.75 C 2653.41 8976.75 2654.75 8978.09 2654.75 8979.75 C 2654.75 8981.41 2653.41 8982.75 2651.75 8982.75 Z M 2660.75 8974.75 L 2642.75 8974.75 L 2642.75 8946.75 L 2660.75 8946.75 L 2660.75 8974.75 Z" fill="black"/>
        </g>
      </g>
      <g id="Group_41">
        <g id="Graphic_43">
          <circle cx="2747.25" cy="8791.75" r="30.2500483365324" fill="white"/>
          <circle cx="2747.25" cy="8791.75" r="30.2500483365324" stroke="black" stroke-linecap="round" stroke-linejoin="round" stroke-width="1"/>
        </g>
        <g id="Graphic_42">
          <title>Phone iPhone</title>
          <path d="M 2755.25 8769.25 L 2739.25 8769.25 C 2736.49 8769.25 2734.25 8771.49 2734.25 8774.25 L 2734.25 8808.25 C 2734.25 8811.01 2736.49 8813.25 2739.25 8813.25 L 2755.25 8813.25 C 2758.01 8813.25 2760.25 8811.01 2760.25 8808.25 L 2760.25 8774.25 C 2760.25 8771.49 2758.01 8769.25 2755.25 8769.25 Z M 2747.25 8811.25 C 2745.59 8811.25 2744.25 8809.91 2744.25 8808.25 C 2744.25 8806.59 2745.59 8805.25 2747.25 8805.25 C 2748.91 8805.25 2750.25 8806.59 2750.25 8808.25 C 2750.25 8809.91 2748.91 8811.25 2747.25 8811.25 Z M 2756.25 8803.25 L 2738.25 8803.25 L 2738.25 8775.25 L 2756.25 8775.25 L 2756.25 8803.25 Z" fill="black"/>
        </g>
      </g>
      <g id="Group_44">
        <g id="Graphic_46">
          <circle cx="2849.75" cy="8853.25" r="30.2500483365327" fill="white"/>
          <circle cx="2849.75" cy="8853.25" r="30.2500483365327" stroke="black" stroke-linecap="round" stroke-linejoin="round" stroke-width="1"/>
        </g>
        <g id="Graphic_45">
          <title>Phone iPhone</title>
          <path d="M 2857.75 8830.75 L 2841.75 8830.75 C 2838.99 8830.75 2836.75 8832.99 2836.75 8835.75 L 2836.75 8869.75 C 2836.75 8872.51 2838.99 8874.75 2841.75 8874.75 L 2857.75 8874.75 C 2860.51 8874.75 2862.75 8872.51 2862.75 8869.75 L 2862.75 8835.75 C 2862.75 8832.99 2860.51 8830.75 2857.75 8830.75 Z M 2849.75 8872.75 C 2848.09 8872.75 2846.75 8871.41 2846.75 8869.75 C 2846.75 8868.09 2848.09 8866.75 2849.75 8866.75 C 2851.41 8866.75 2852.75 8868.09 2852.75 8869.75 C 2852.75 8871.41 2851.41 8872.75 2849.75 8872.75 Z M 2858.75 8864.75 L 2840.75 8864.75 L 2840.75 8836.75 L 2858.75 8836.75 L 2858.75 8864.75 Z" fill="black"/>
        </g>
      </g>
      <g id="Group_47">
        <g id="Graphic_49">
          <circle cx="2782.75" cy="9039.25" r="30.250048336533" fill="white"/>
          <circle cx="2782.75" cy="9039.25" r="30.250048336533" stroke="black" stroke-linecap="round" stroke-linejoin="round" stroke-width="1"/>
        </g>
        <g id="Graphic_48">
          <title>Phone iPhone</title>
          <path d="M 2790.75 9016.75 L 2774.75 9016.75 C 2771.99 9016.75 2769.75 9018.99 2769.75 9021.75 L 2769.75 9055.75 C 2769.75 9058.51 2771.99 9060.75 2774.75 9060.75 L 2790.75 9060.75 C 2793.51 9060.75 2795.75 9058.51 2795.75 9055.75 L 2795.75 9021.75 C 2795.75 9018.99 2793.51 9016.75 2790.75 9016.75 Z M 2782.75 9058.75 C 2781.09 9058.75 2779.75 9057.41 2779.75 9055.75 C 2779.75 9054.09 2781.09 9052.75 2782.75 9052.75 C 2784.41 9052.75 2785.75 9054.09 2785.75 9055.75 C 2785.75 9057.41 2784.41 9058.75 2782.75 9058.75 Z M 2791.75 9050.75 L 2773.75 9050.75 L 2773.75 9022.75 L 2791.75 9022.75 L 2791.75 9050.75 Z" fill="black"/>
        </g>
      </g>
      <g id="Line_50">
        <line x1="2359.4478" y1="8799.167" x2="2448.0522" y2="8873.333" stroke="black" stroke-linecap="round" stroke-linejoin="round" stroke-width="1"/>
      </g>
      <g id="Line_51">
        <line x1="2343.5297" y1="8809.116" x2="2387.9703" y2="8988.384" stroke="black" stroke-linecap="round" stroke-linejoin="round" stroke-width="1"/>
      </g>
      <g id="Line_52">
        <line x1="2365.921" y1="8785.657" x2="2522.579" y2="8816.843" stroke="black" stroke-linecap="round" stroke-linejoin="round" stroke-width="1"/>
      </g>
      <g id="Line_53">
        <line x1="2582.127" y1="8818" x2="2717.373" y2="8796.5" stroke="black" stroke-linecap="round" stroke-linejoin="round" stroke-width="1"/>
      </g>
      <g id="Line_54">
        <line x1="2773.1953" y1="8807.317" x2="2823.8047" y2="8837.683" stroke="black" stroke-linecap="round" stroke-linejoin="round" stroke-width="1"/>
      </g>
      <g id="Line_55">
        <line x1="2839.496" y1="8881.717" x2="2793.004" y2="9010.783" stroke="black" stroke-linecap="round" stroke-linejoin="round" stroke-width="1"/>
      </g>
      <g id="Line_56">
        <line x1="2499.434" y1="8903.758" x2="2623.566" y2="8952.242" stroke="black" stroke-linecap="round" stroke-linejoin="round" stroke-width="1"/>
      </g>
      <g id="Line_57">
        <line x1="2569.7354" y1="8847.44" x2="2634.2646" y2="8938.56" stroke="black" stroke-linecap="round" stroke-linejoin="round" stroke-width="1"/>
      </g>
      <g id="Line_58">
        <line x1="2455.531" y1="8918.603" x2="2410.969" y2="8991.897" stroke="black" stroke-linecap="round" stroke-linejoin="round" stroke-width="1"/>
      </g>
      <g id="Line_59">
        <line x1="2420.7104" y1="9001.403" x2="2721.7896" y2="8808.097" stroke="black" stroke-linecap="round" stroke-linejoin="round" stroke-width="1"/>
      </g>
      <g id="Line_60">
        <line x1="2424.843" y1="9011.462" x2="2622.157" y2="8969.538" stroke="black" stroke-linecap="round" stroke-linejoin="round" stroke-width="1"/>
      </g>
      <g id="Line_61">
        <line x1="2425.4538" y1="9019.426" x2="2752.546" y2="9037.574" stroke="black" stroke-linecap="round" stroke-linejoin="round" stroke-width="1"/>
      </g>
      <g id="Line_62">
        <line x1="2666.4706" y1="8936.815" x2="2732.5294" y2="8818.185" stroke="black" stroke-linecap="round" stroke-linejoin="round" stroke-width="1"/>
      </g>
      <g id="Line_63">
        <line x1="2678.2" y1="8948.556" x2="2823.3" y2="8867.944" stroke="black" stroke-linecap="round" stroke-linejoin="round" stroke-width="1"/>
      </g>
      <g id="Line_64">
        <line x1="2677.922" y1="8978.434" x2="2756.578" y2="9024.066" stroke="black" stroke-linecap="round" stroke-linejoin="round" stroke-width="1"/>
      </g>
      <g id="Line_65">
        <line x1="2778.4548" y1="9009.305" x2="2751.5452" y2="8821.695" stroke="black" stroke-linecap="round" stroke-linejoin="round" stroke-width="1"/>
      </g>
    </g>
  </g>
</svg>
