<?xml version="1.0" encoding="UTF-8" standalone="no"?>
<!DOCTYPE svg PUBLIC "-//W3C//DTD SVG 1.1//EN" "http://www.w3.org/Graphics/SVG/1.1/DTD/svg11.dtd">
<svg xmlns:xl="http://www.w3.org/1999/xlink" xmlns:dc="http://purl.org/dc/elements/1.1/" xmlns="http://www.w3.org/2000/svg" version="1.1" viewBox="1571.5 10718.399 1369.6 183.30081" width="1369.6" height="183.30081">
  <defs>
    <marker orient="auto" overflow="visible" markerUnits="strokeWidth" id="FilledArrow_Marker" stroke-linejoin="miter" stroke-miterlimit="10" viewBox="-1 -4 10 8" markerWidth="10" markerHeight="8" color="black">
      <g>
        <path d="M 8 0 L 0 -3 L 0 3 Z" fill="currentColor" stroke="currentColor" stroke-width="1"/>
      </g>
    </marker>
  </defs>
  <metadata> Produced by OmniGraffle 7.19.4\n2022-04-18 04:30:54 +0000</metadata>
  <g id="10_gaming_leaderboard" stroke="none" stroke-dasharray="none" fill="none" fill-opacity="1" stroke-opacity="1">
    <title>10.gaming leaderboard</title>
    <g id="10_gaming_leaderboard_Layer_1">
      <title>Layer 1</title>
      <g id="Graphic_366">
        <circle cx="1575.9" cy="10897.3" r="3.90000628993182" fill="white"/>
        <circle cx="1575.9" cy="10897.3" r="3.90000628993182" stroke="black" stroke-linecap="round" stroke-linejoin="round" stroke-width="1"/>
      </g>
      <g id="Graphic_367">
        <circle cx="1597.5" cy="10897.3" r="3.90000628993179" fill="white"/>
        <circle cx="1597.5" cy="10897.3" r="3.90000628993179" stroke="black" stroke-linecap="round" stroke-linejoin="round" stroke-width="1"/>
      </g>
      <g id="Graphic_369">
        <circle cx="1619.1" cy="10897.3" r="3.90000628993179" fill="white"/>
        <circle cx="1619.1" cy="10897.3" r="3.90000628993179" stroke="black" stroke-linecap="round" stroke-linejoin="round" stroke-width="1"/>
      </g>
      <g id="Graphic_368">
        <circle cx="1640.7" cy="10897.3" r="3.90000628993179" fill="white"/>
        <circle cx="1640.7" cy="10897.3" r="3.90000628993179" stroke="black" stroke-linecap="round" stroke-linejoin="round" stroke-width="1"/>
      </g>
      <g id="Graphic_373">
        <circle cx="1662.3" cy="10897.3" r="3.90000628993179" fill="white"/>
        <circle cx="1662.3" cy="10897.3" r="3.90000628993179" stroke="black" stroke-linecap="round" stroke-linejoin="round" stroke-width="1"/>
      </g>
      <g id="Graphic_372">
        <circle cx="1683.9" cy="10897.3" r="3.90000628993173" fill="white"/>
        <circle cx="1683.9" cy="10897.3" r="3.90000628993173" stroke="black" stroke-linecap="round" stroke-linejoin="round" stroke-width="1"/>
      </g>
      <g id="Graphic_371">
        <circle cx="1705.5" cy="10897.3" r="3.90000628993179" fill="white"/>
        <circle cx="1705.5" cy="10897.3" r="3.90000628993179" stroke="black" stroke-linecap="round" stroke-linejoin="round" stroke-width="1"/>
      </g>
      <g id="Graphic_370">
        <circle cx="1727.1" cy="10897.3" r="3.9000062899317" fill="white"/>
        <circle cx="1727.1" cy="10897.3" r="3.9000062899317" stroke="black" stroke-linecap="round" stroke-linejoin="round" stroke-width="1"/>
      </g>
      <g id="Graphic_381">
        <circle cx="1748.7" cy="10897.3" r="3.9000062899317" fill="white"/>
        <circle cx="1748.7" cy="10897.3" r="3.9000062899317" stroke="black" stroke-linecap="round" stroke-linejoin="round" stroke-width="1"/>
      </g>
      <g id="Graphic_380">
        <circle cx="1770.3" cy="10897.3" r="3.90000628993173" fill="white"/>
        <circle cx="1770.3" cy="10897.3" r="3.90000628993173" stroke="black" stroke-linecap="round" stroke-linejoin="round" stroke-width="1"/>
      </g>
      <g id="Graphic_379">
        <circle cx="1791.9" cy="10897.3" r="3.90000628993179" fill="white"/>
        <circle cx="1791.9" cy="10897.3" r="3.90000628993179" stroke="black" stroke-linecap="round" stroke-linejoin="round" stroke-width="1"/>
      </g>
      <g id="Graphic_378">
        <circle cx="1813.5" cy="10897.3" r="3.90000628993179" fill="white"/>
        <circle cx="1813.5" cy="10897.3" r="3.90000628993179" stroke="black" stroke-linecap="round" stroke-linejoin="round" stroke-width="1"/>
      </g>
      <g id="Graphic_377">
        <circle cx="1835.1" cy="10897.3" r="3.90000628993179" fill="white"/>
        <circle cx="1835.1" cy="10897.3" r="3.90000628993179" stroke="black" stroke-linecap="round" stroke-linejoin="round" stroke-width="1"/>
      </g>
      <g id="Graphic_376">
        <circle cx="1856.7" cy="10897.3" r="3.90000628993173" fill="white"/>
        <circle cx="1856.7" cy="10897.3" r="3.90000628993173" stroke="black" stroke-linecap="round" stroke-linejoin="round" stroke-width="1"/>
      </g>
      <g id="Graphic_375">
        <circle cx="1878.3" cy="10897.3" r="3.90000628993173" fill="white"/>
        <circle cx="1878.3" cy="10897.3" r="3.90000628993173" stroke="black" stroke-linecap="round" stroke-linejoin="round" stroke-width="1"/>
      </g>
      <g id="Graphic_374">
        <circle cx="1899.9" cy="10897.3" r="3.90000628993179" fill="white"/>
        <circle cx="1899.9" cy="10897.3" r="3.90000628993179" stroke="black" stroke-linecap="round" stroke-linejoin="round" stroke-width="1"/>
      </g>
      <g id="Graphic_397">
        <circle cx="1921.5" cy="10897.3" r="3.90000628993173" fill="white"/>
        <circle cx="1921.5" cy="10897.3" r="3.90000628993173" stroke="black" stroke-linecap="round" stroke-linejoin="round" stroke-width="1"/>
      </g>
      <g id="Graphic_396">
        <circle cx="1943.1" cy="10897.3" r="3.90000628993176" fill="white"/>
        <circle cx="1943.1" cy="10897.3" r="3.90000628993176" stroke="black" stroke-linecap="round" stroke-linejoin="round" stroke-width="1"/>
      </g>
      <g id="Graphic_395">
        <circle cx="1964.7" cy="10897.3" r="3.90000628993176" fill="white"/>
        <circle cx="1964.7" cy="10897.3" r="3.90000628993176" stroke="black" stroke-linecap="round" stroke-linejoin="round" stroke-width="1"/>
      </g>
      <g id="Graphic_394">
        <circle cx="1986.3" cy="10897.3" r="3.90000628993176" fill="white"/>
        <circle cx="1986.3" cy="10897.3" r="3.90000628993176" stroke="black" stroke-linecap="round" stroke-linejoin="round" stroke-width="1"/>
      </g>
      <g id="Graphic_393">
        <circle cx="2007.9" cy="10897.3" r="3.90000628993176" fill="white"/>
        <circle cx="2007.9" cy="10897.3" r="3.90000628993176" stroke="black" stroke-linecap="round" stroke-linejoin="round" stroke-width="1"/>
      </g>
      <g id="Graphic_392">
        <circle cx="2029.5" cy="10897.3" r="3.90000628993176" fill="white"/>
        <circle cx="2029.5" cy="10897.3" r="3.90000628993176" stroke="black" stroke-linecap="round" stroke-linejoin="round" stroke-width="1"/>
      </g>
      <g id="Graphic_391">
        <circle cx="2051.1" cy="10897.3" r="3.90000628993179" fill="white"/>
        <circle cx="2051.1" cy="10897.3" r="3.90000628993179" stroke="black" stroke-linecap="round" stroke-linejoin="round" stroke-width="1"/>
      </g>
      <g id="Graphic_390">
        <circle cx="2072.7" cy="10897.3" r="3.90000628993197" fill="white"/>
        <circle cx="2072.7" cy="10897.3" r="3.90000628993197" stroke="black" stroke-linecap="round" stroke-linejoin="round" stroke-width="1"/>
      </g>
      <g id="Graphic_389">
        <circle cx="2094.3" cy="10897.3" r="3.90000628993191" fill="white"/>
        <circle cx="2094.3" cy="10897.3" r="3.90000628993191" stroke="black" stroke-linecap="round" stroke-linejoin="round" stroke-width="1"/>
      </g>
      <g id="Graphic_388">
        <circle cx="2115.9" cy="10897.3" r="3.90000628993191" fill="white"/>
        <circle cx="2115.9" cy="10897.3" r="3.90000628993191" stroke="black" stroke-linecap="round" stroke-linejoin="round" stroke-width="1"/>
      </g>
      <g id="Graphic_387">
        <circle cx="2137.5" cy="10897.3" r="3.90000628993191" fill="white"/>
        <circle cx="2137.5" cy="10897.3" r="3.90000628993191" stroke="black" stroke-linecap="round" stroke-linejoin="round" stroke-width="1"/>
      </g>
      <g id="Graphic_386">
        <circle cx="2159.1" cy="10897.3" r="3.90000628993182" fill="white"/>
        <circle cx="2159.1" cy="10897.3" r="3.90000628993182" stroke="black" stroke-linecap="round" stroke-linejoin="round" stroke-width="1"/>
      </g>
      <g id="Graphic_385">
        <circle cx="2180.7" cy="10897.3" r="3.90000628993182" fill="white"/>
        <circle cx="2180.7" cy="10897.3" r="3.90000628993182" stroke="black" stroke-linecap="round" stroke-linejoin="round" stroke-width="1"/>
      </g>
      <g id="Graphic_384">
        <circle cx="2202.3" cy="10897.3" r="3.90000628993182" fill="white"/>
        <circle cx="2202.3" cy="10897.3" r="3.90000628993182" stroke="black" stroke-linecap="round" stroke-linejoin="round" stroke-width="1"/>
      </g>
      <g id="Graphic_383">
        <circle cx="2223.9" cy="10897.3" r="3.90000628993182" fill="white"/>
        <circle cx="2223.9" cy="10897.3" r="3.90000628993182" stroke="black" stroke-linecap="round" stroke-linejoin="round" stroke-width="1"/>
      </g>
      <g id="Graphic_382">
        <circle cx="2245.5" cy="10897.3" r="3.90000628993176" fill="white"/>
        <circle cx="2245.5" cy="10897.3" r="3.90000628993176" stroke="black" stroke-linecap="round" stroke-linejoin="round" stroke-width="1"/>
      </g>
      <g id="Graphic_429">
        <circle cx="2267.1" cy="10897.3" r="3.90000628993188" fill="white"/>
        <circle cx="2267.1" cy="10897.3" r="3.90000628993188" stroke="black" stroke-linecap="round" stroke-linejoin="round" stroke-width="1"/>
      </g>
      <g id="Graphic_428">
        <circle cx="2288.7" cy="10897.3" r="3.90000628993182" fill="white"/>
        <circle cx="2288.7" cy="10897.3" r="3.90000628993182" stroke="black" stroke-linecap="round" stroke-linejoin="round" stroke-width="1"/>
      </g>
      <g id="Graphic_427">
        <circle cx="2310.3" cy="10897.3" r="3.90000628993182" fill="white"/>
        <circle cx="2310.3" cy="10897.3" r="3.90000628993182" stroke="black" stroke-linecap="round" stroke-linejoin="round" stroke-width="1"/>
      </g>
      <g id="Graphic_426">
        <circle cx="2331.9" cy="10897.3" r="3.90000628993188" fill="white"/>
        <circle cx="2331.9" cy="10897.3" r="3.90000628993188" stroke="black" stroke-linecap="round" stroke-linejoin="round" stroke-width="1"/>
      </g>
      <g id="Graphic_425">
        <circle cx="2353.5" cy="10897.3" r="3.90000628993188" fill="white"/>
        <circle cx="2353.5" cy="10897.3" r="3.90000628993188" stroke="black" stroke-linecap="round" stroke-linejoin="round" stroke-width="1"/>
      </g>
      <g id="Graphic_424">
        <circle cx="2375.1" cy="10897.3" r="3.90000628993188" fill="white"/>
        <circle cx="2375.1" cy="10897.3" r="3.90000628993188" stroke="black" stroke-linecap="round" stroke-linejoin="round" stroke-width="1"/>
      </g>
      <g id="Graphic_423">
        <circle cx="2396.7" cy="10897.3" r="3.90000628993188" fill="white"/>
        <circle cx="2396.7" cy="10897.3" r="3.90000628993188" stroke="black" stroke-linecap="round" stroke-linejoin="round" stroke-width="1"/>
      </g>
      <g id="Graphic_422">
        <circle cx="2418.3" cy="10897.3" r="3.90000628993188" fill="white"/>
        <circle cx="2418.3" cy="10897.3" r="3.90000628993188" stroke="black" stroke-linecap="round" stroke-linejoin="round" stroke-width="1"/>
      </g>
      <g id="Graphic_421">
        <circle cx="2439.9" cy="10897.3" r="3.90000628993194" fill="white"/>
        <circle cx="2439.9" cy="10897.3" r="3.90000628993194" stroke="black" stroke-linecap="round" stroke-linejoin="round" stroke-width="1"/>
      </g>
      <g id="Graphic_420">
        <circle cx="2461.5" cy="10897.3" r="3.90000628993188" fill="white"/>
        <circle cx="2461.5" cy="10897.3" r="3.90000628993188" stroke="black" stroke-linecap="round" stroke-linejoin="round" stroke-width="1"/>
      </g>
      <g id="Graphic_419">
        <circle cx="2483.1" cy="10897.3" r="3.90000628993188" fill="white"/>
        <circle cx="2483.1" cy="10897.3" r="3.90000628993188" stroke="black" stroke-linecap="round" stroke-linejoin="round" stroke-width="1"/>
      </g>
      <g id="Graphic_418">
        <circle cx="2504.7" cy="10897.3" r="3.90000628993188" fill="white"/>
        <circle cx="2504.7" cy="10897.3" r="3.90000628993188" stroke="black" stroke-linecap="round" stroke-linejoin="round" stroke-width="1"/>
      </g>
      <g id="Graphic_417">
        <circle cx="2526.3" cy="10897.3" r="3.90000628993194" fill="white"/>
        <circle cx="2526.3" cy="10897.3" r="3.90000628993194" stroke="black" stroke-linecap="round" stroke-linejoin="round" stroke-width="1"/>
      </g>
      <g id="Graphic_416">
        <circle cx="2547.9" cy="10897.3" r="3.90000628993194" fill="white"/>
        <circle cx="2547.9" cy="10897.3" r="3.90000628993194" stroke="black" stroke-linecap="round" stroke-linejoin="round" stroke-width="1"/>
      </g>
      <g id="Graphic_415">
        <circle cx="2569.5" cy="10897.3" r="3.90000628993194" fill="white"/>
        <circle cx="2569.5" cy="10897.3" r="3.90000628993194" stroke="black" stroke-linecap="round" stroke-linejoin="round" stroke-width="1"/>
      </g>
      <g id="Graphic_414">
        <circle cx="2591.1" cy="10897.3" r="3.90000628993188" fill="white"/>
        <circle cx="2591.1" cy="10897.3" r="3.90000628993188" stroke="black" stroke-linecap="round" stroke-linejoin="round" stroke-width="1"/>
      </g>
      <g id="Graphic_413">
        <circle cx="2612.7" cy="10897.3" r="3.90000628993188" fill="white"/>
        <circle cx="2612.7" cy="10897.3" r="3.90000628993188" stroke="black" stroke-linecap="round" stroke-linejoin="round" stroke-width="1"/>
      </g>
      <g id="Graphic_412">
        <circle cx="2634.3" cy="10897.3" r="3.90000628993194" fill="white"/>
        <circle cx="2634.3" cy="10897.3" r="3.90000628993194" stroke="black" stroke-linecap="round" stroke-linejoin="round" stroke-width="1"/>
      </g>
      <g id="Graphic_411">
        <circle cx="2655.9" cy="10897.3" r="3.90000628993182" fill="white"/>
        <circle cx="2655.9" cy="10897.3" r="3.90000628993182" stroke="black" stroke-linecap="round" stroke-linejoin="round" stroke-width="1"/>
      </g>
      <g id="Graphic_410">
        <circle cx="2677.5" cy="10897.3" r="3.90000628993176" fill="white"/>
        <circle cx="2677.5" cy="10897.3" r="3.90000628993176" stroke="black" stroke-linecap="round" stroke-linejoin="round" stroke-width="1"/>
      </g>
      <g id="Graphic_409">
        <circle cx="2699.1" cy="10897.3" r="3.90000628993182" fill="white"/>
        <circle cx="2699.1" cy="10897.3" r="3.90000628993182" stroke="black" stroke-linecap="round" stroke-linejoin="round" stroke-width="1"/>
      </g>
      <g id="Graphic_408">
        <circle cx="2720.7" cy="10897.3" r="3.90000628993182" fill="white"/>
        <circle cx="2720.7" cy="10897.3" r="3.90000628993182" stroke="black" stroke-linecap="round" stroke-linejoin="round" stroke-width="1"/>
      </g>
      <g id="Graphic_407">
        <circle cx="2742.3" cy="10897.3" r="3.90000628993182" fill="white"/>
        <circle cx="2742.3" cy="10897.3" r="3.90000628993182" stroke="black" stroke-linecap="round" stroke-linejoin="round" stroke-width="1"/>
      </g>
      <g id="Graphic_406">
        <circle cx="2763.9" cy="10897.3" r="3.90000628993188" fill="white"/>
        <circle cx="2763.9" cy="10897.3" r="3.90000628993188" stroke="black" stroke-linecap="round" stroke-linejoin="round" stroke-width="1"/>
      </g>
      <g id="Graphic_405">
        <circle cx="2785.5" cy="10897.3" r="3.90000628993188" fill="white"/>
        <circle cx="2785.5" cy="10897.3" r="3.90000628993188" stroke="black" stroke-linecap="round" stroke-linejoin="round" stroke-width="1"/>
      </g>
      <g id="Graphic_404">
        <circle cx="2807.1" cy="10897.3" r="3.90000628993194" fill="white"/>
        <circle cx="2807.1" cy="10897.3" r="3.90000628993194" stroke="black" stroke-linecap="round" stroke-linejoin="round" stroke-width="1"/>
      </g>
      <g id="Graphic_403">
        <circle cx="2828.7" cy="10897.3" r="3.90000628993194" fill="white"/>
        <circle cx="2828.7" cy="10897.3" r="3.90000628993194" stroke="black" stroke-linecap="round" stroke-linejoin="round" stroke-width="1"/>
      </g>
      <g id="Graphic_402">
        <circle cx="2850.3" cy="10897.3" r="3.90000628993194" fill="white"/>
        <circle cx="2850.3" cy="10897.3" r="3.90000628993194" stroke="black" stroke-linecap="round" stroke-linejoin="round" stroke-width="1"/>
      </g>
      <g id="Graphic_401">
        <circle cx="2871.9" cy="10897.3" r="3.90000628993182" fill="white"/>
        <circle cx="2871.9" cy="10897.3" r="3.90000628993182" stroke="black" stroke-linecap="round" stroke-linejoin="round" stroke-width="1"/>
      </g>
      <g id="Graphic_400">
        <circle cx="2893.5" cy="10897.3" r="3.90000628993194" fill="red"/>
        <circle cx="2893.5" cy="10897.3" r="3.90000628993194" stroke="black" stroke-linecap="round" stroke-linejoin="round" stroke-width="1"/>
      </g>
      <g id="Graphic_399">
        <circle cx="2915.1" cy="10897.3" r="3.90000628993182" fill="white"/>
        <circle cx="2915.1" cy="10897.3" r="3.90000628993182" stroke="black" stroke-linecap="round" stroke-linejoin="round" stroke-width="1"/>
      </g>
      <g id="Graphic_398">
        <circle cx="2936.7" cy="10897.3" r="3.90000628993194" fill="white"/>
        <circle cx="2936.7" cy="10897.3" r="3.90000628993194" stroke="black" stroke-linecap="round" stroke-linejoin="round" stroke-width="1"/>
      </g>
      <g id="Graphic_493">
        <path d="M 1578.6577 10859.642 C 1580.1808 10861.165 1580.1808 10863.635 1578.6577 10865.158 C 1577.1347 10866.681 1574.6654 10866.681 1573.1423 10865.158 C 1571.6193 10863.635 1571.6193 10861.165 1573.1423 10859.642 C 1574.6654 10858.119 1577.1347 10858.119 1578.6577 10859.642" fill="white"/>
        <path d="M 1578.6577 10859.642 C 1580.1808 10861.165 1580.1808 10863.635 1578.6577 10865.158 C 1577.1347 10866.681 1574.6654 10866.681 1573.1423 10865.158 C 1571.6193 10863.635 1571.6193 10861.165 1573.1423 10859.642 C 1574.6654 10858.119 1577.1347 10858.119 1578.6577 10859.642" stroke="black" stroke-linecap="round" stroke-linejoin="round" stroke-width="1"/>
      </g>
      <g id="Graphic_491">
        <path d="M 1621.8577 10859.642 C 1623.3808 10861.165 1623.3808 10863.635 1621.8577 10865.158 C 1620.3347 10866.681 1617.8654 10866.681 1616.3423 10865.158 C 1614.8193 10863.635 1614.8193 10861.165 1616.3423 10859.642 C 1617.8654 10858.119 1620.3347 10858.119 1621.8577 10859.642" fill="white"/>
        <path d="M 1621.8577 10859.642 C 1623.3808 10861.165 1623.3808 10863.635 1621.8577 10865.158 C 1620.3347 10866.681 1617.8654 10866.681 1616.3423 10865.158 C 1614.8193 10863.635 1614.8193 10861.165 1616.3423 10859.642 C 1617.8654 10858.119 1620.3347 10858.119 1621.8577 10859.642" stroke="black" stroke-linecap="round" stroke-linejoin="round" stroke-width="1"/>
      </g>
      <g id="Graphic_489">
        <path d="M 1665.0577 10859.642 C 1666.5808 10861.165 1666.5808 10863.635 1665.0577 10865.158 C 1663.5347 10866.681 1661.0654 10866.681 1659.5423 10865.158 C 1658.0193 10863.635 1658.0193 10861.165 1659.5423 10859.642 C 1661.0654 10858.119 1663.5347 10858.119 1665.0577 10859.642" fill="white"/>
        <path d="M 1665.0577 10859.642 C 1666.5808 10861.165 1666.5808 10863.635 1665.0577 10865.158 C 1663.5347 10866.681 1661.0654 10866.681 1659.5423 10865.158 C 1658.0193 10863.635 1658.0193 10861.165 1659.5423 10859.642 C 1661.0654 10858.119 1663.5347 10858.119 1665.0577 10859.642" stroke="black" stroke-linecap="round" stroke-linejoin="round" stroke-width="1"/>
      </g>
      <g id="Graphic_487">
        <path d="M 1708.2577 10859.642 C 1709.7808 10861.165 1709.7808 10863.635 1708.2577 10865.158 C 1706.7347 10866.681 1704.2654 10866.681 1702.7423 10865.158 C 1701.2193 10863.635 1701.2193 10861.165 1702.7423 10859.642 C 1704.2654 10858.119 1706.7347 10858.119 1708.2577 10859.642" fill="white"/>
        <path d="M 1708.2577 10859.642 C 1709.7808 10861.165 1709.7808 10863.635 1708.2577 10865.158 C 1706.7347 10866.681 1704.2654 10866.681 1702.7423 10865.158 C 1701.2193 10863.635 1701.2193 10861.165 1702.7423 10859.642 C 1704.2654 10858.119 1706.7347 10858.119 1708.2577 10859.642" stroke="black" stroke-linecap="round" stroke-linejoin="round" stroke-width="1"/>
      </g>
      <g id="Graphic_485">
        <path d="M 1751.4577 10859.642 C 1752.9808 10861.165 1752.9808 10863.635 1751.4577 10865.158 C 1749.9347 10866.681 1747.4654 10866.681 1745.9423 10865.158 C 1744.4193 10863.635 1744.4193 10861.165 1745.9423 10859.642 C 1747.4654 10858.119 1749.9347 10858.119 1751.4577 10859.642" fill="white"/>
        <path d="M 1751.4577 10859.642 C 1752.9808 10861.165 1752.9808 10863.635 1751.4577 10865.158 C 1749.9347 10866.681 1747.4654 10866.681 1745.9423 10865.158 C 1744.4193 10863.635 1744.4193 10861.165 1745.9423 10859.642 C 1747.4654 10858.119 1749.9347 10858.119 1751.4577 10859.642" stroke="black" stroke-linecap="round" stroke-linejoin="round" stroke-width="1"/>
      </g>
      <g id="Graphic_483">
        <path d="M 1794.6577 10859.642 C 1796.1808 10861.165 1796.1808 10863.635 1794.6577 10865.158 C 1793.1347 10866.681 1790.6654 10866.681 1789.1423 10865.158 C 1787.6193 10863.635 1787.6193 10861.165 1789.1423 10859.642 C 1790.6654 10858.119 1793.1347 10858.119 1794.6577 10859.642" fill="white"/>
        <path d="M 1794.6577 10859.642 C 1796.1808 10861.165 1796.1808 10863.635 1794.6577 10865.158 C 1793.1347 10866.681 1790.6654 10866.681 1789.1423 10865.158 C 1787.6193 10863.635 1787.6193 10861.165 1789.1423 10859.642 C 1790.6654 10858.119 1793.1347 10858.119 1794.6577 10859.642" stroke="black" stroke-linecap="round" stroke-linejoin="round" stroke-width="1"/>
      </g>
      <g id="Graphic_481">
        <path d="M 1837.8577 10859.642 C 1839.3808 10861.165 1839.3808 10863.635 1837.8577 10865.158 C 1836.3347 10866.681 1833.8654 10866.681 1832.3423 10865.158 C 1830.8193 10863.635 1830.8193 10861.165 1832.3423 10859.642 C 1833.8654 10858.119 1836.3347 10858.119 1837.8577 10859.642" fill="white"/>
        <path d="M 1837.8577 10859.642 C 1839.3808 10861.165 1839.3808 10863.635 1837.8577 10865.158 C 1836.3347 10866.681 1833.8654 10866.681 1832.3423 10865.158 C 1830.8193 10863.635 1830.8193 10861.165 1832.3423 10859.642 C 1833.8654 10858.119 1836.3347 10858.119 1837.8577 10859.642" stroke="black" stroke-linecap="round" stroke-linejoin="round" stroke-width="1"/>
      </g>
      <g id="Graphic_479">
        <path d="M 1881.0577 10859.642 C 1882.5808 10861.165 1882.5808 10863.635 1881.0577 10865.158 C 1879.5347 10866.681 1877.0654 10866.681 1875.5423 10865.158 C 1874.0193 10863.635 1874.0193 10861.165 1875.5423 10859.642 C 1877.0654 10858.119 1879.5347 10858.119 1881.0577 10859.642" fill="white"/>
        <path d="M 1881.0577 10859.642 C 1882.5808 10861.165 1882.5808 10863.635 1881.0577 10865.158 C 1879.5347 10866.681 1877.0654 10866.681 1875.5423 10865.158 C 1874.0193 10863.635 1874.0193 10861.165 1875.5423 10859.642 C 1877.0654 10858.119 1879.5347 10858.119 1881.0577 10859.642" stroke="black" stroke-linecap="round" stroke-linejoin="round" stroke-width="1"/>
      </g>
      <g id="Graphic_477">
        <path d="M 1924.2577 10859.642 C 1925.7808 10861.165 1925.7808 10863.635 1924.2577 10865.158 C 1922.7347 10866.681 1920.2654 10866.681 1918.7423 10865.158 C 1917.2193 10863.635 1917.2193 10861.165 1918.7423 10859.642 C 1920.2654 10858.119 1922.7347 10858.119 1924.2577 10859.642" fill="white"/>
        <path d="M 1924.2577 10859.642 C 1925.7808 10861.165 1925.7808 10863.635 1924.2577 10865.158 C 1922.7347 10866.681 1920.2654 10866.681 1918.7423 10865.158 C 1917.2193 10863.635 1917.2193 10861.165 1918.7423 10859.642 C 1920.2654 10858.119 1922.7347 10858.119 1924.2577 10859.642" stroke="black" stroke-linecap="round" stroke-linejoin="round" stroke-width="1"/>
      </g>
      <g id="Graphic_475">
        <path d="M 1967.4577 10859.642 C 1968.9808 10861.165 1968.9808 10863.635 1967.4577 10865.158 C 1965.9347 10866.681 1963.4654 10866.681 1961.9423 10865.158 C 1960.4193 10863.635 1960.4193 10861.165 1961.9423 10859.642 C 1963.4654 10858.119 1965.9347 10858.119 1967.4577 10859.642" fill="white"/>
        <path d="M 1967.4577 10859.642 C 1968.9808 10861.165 1968.9808 10863.635 1967.4577 10865.158 C 1965.9347 10866.681 1963.4654 10866.681 1961.9423 10865.158 C 1960.4193 10863.635 1960.4193 10861.165 1961.9423 10859.642 C 1963.4654 10858.119 1965.9347 10858.119 1967.4577 10859.642" stroke="black" stroke-linecap="round" stroke-linejoin="round" stroke-width="1"/>
      </g>
      <g id="Graphic_473">
        <path d="M 2010.6577 10859.642 C 2012.1808 10861.165 2012.1808 10863.635 2010.6577 10865.158 C 2009.1347 10866.681 2006.6654 10866.681 2005.1423 10865.158 C 2003.6193 10863.635 2003.6193 10861.165 2005.1423 10859.642 C 2006.6654 10858.119 2009.1347 10858.119 2010.6577 10859.642" fill="white"/>
        <path d="M 2010.6577 10859.642 C 2012.1808 10861.165 2012.1808 10863.635 2010.6577 10865.158 C 2009.1347 10866.681 2006.6654 10866.681 2005.1423 10865.158 C 2003.6193 10863.635 2003.6193 10861.165 2005.1423 10859.642 C 2006.6654 10858.119 2009.1347 10858.119 2010.6577 10859.642" stroke="black" stroke-linecap="round" stroke-linejoin="round" stroke-width="1"/>
      </g>
      <g id="Graphic_471">
        <path d="M 2053.8577 10859.642 C 2055.3808 10861.165 2055.3808 10863.635 2053.8577 10865.158 C 2052.3347 10866.681 2049.8654 10866.681 2048.3423 10865.158 C 2046.8193 10863.635 2046.8193 10861.165 2048.3423 10859.642 C 2049.8654 10858.119 2052.3347 10858.119 2053.8577 10859.642" fill="white"/>
        <path d="M 2053.8577 10859.642 C 2055.3808 10861.165 2055.3808 10863.635 2053.8577 10865.158 C 2052.3347 10866.681 2049.8654 10866.681 2048.3423 10865.158 C 2046.8193 10863.635 2046.8193 10861.165 2048.3423 10859.642 C 2049.8654 10858.119 2052.3347 10858.119 2053.8577 10859.642" stroke="black" stroke-linecap="round" stroke-linejoin="round" stroke-width="1"/>
      </g>
      <g id="Graphic_469">
        <path d="M 2097.0577 10859.642 C 2098.5808 10861.165 2098.5808 10863.635 2097.0577 10865.158 C 2095.5347 10866.681 2093.0654 10866.681 2091.5423 10865.158 C 2090.0193 10863.635 2090.0193 10861.165 2091.5423 10859.642 C 2093.0654 10858.119 2095.5347 10858.119 2097.0577 10859.642" fill="white"/>
        <path d="M 2097.0577 10859.642 C 2098.5808 10861.165 2098.5808 10863.635 2097.0577 10865.158 C 2095.5347 10866.681 2093.0654 10866.681 2091.5423 10865.158 C 2090.0193 10863.635 2090.0193 10861.165 2091.5423 10859.642 C 2093.0654 10858.119 2095.5347 10858.119 2097.0577 10859.642" stroke="black" stroke-linecap="round" stroke-linejoin="round" stroke-width="1"/>
      </g>
      <g id="Graphic_467">
        <path d="M 2140.2577 10859.642 C 2141.7808 10861.165 2141.7808 10863.635 2140.2577 10865.158 C 2138.7347 10866.681 2136.2654 10866.681 2134.7423 10865.158 C 2133.2193 10863.635 2133.2193 10861.165 2134.7423 10859.642 C 2136.2654 10858.119 2138.7347 10858.119 2140.2577 10859.642" fill="white"/>
        <path d="M 2140.2577 10859.642 C 2141.7808 10861.165 2141.7808 10863.635 2140.2577 10865.158 C 2138.7347 10866.681 2136.2654 10866.681 2134.7423 10865.158 C 2133.2193 10863.635 2133.2193 10861.165 2134.7423 10859.642 C 2136.2654 10858.119 2138.7347 10858.119 2140.2577 10859.642" stroke="black" stroke-linecap="round" stroke-linejoin="round" stroke-width="1"/>
      </g>
      <g id="Graphic_465">
        <path d="M 2183.4577 10859.642 C 2184.9808 10861.165 2184.9808 10863.635 2183.4577 10865.158 C 2181.9347 10866.681 2179.4654 10866.681 2177.9423 10865.158 C 2176.4193 10863.635 2176.4193 10861.165 2177.9423 10859.642 C 2179.4654 10858.119 2181.9347 10858.119 2183.4577 10859.642" fill="white"/>
        <path d="M 2183.4577 10859.642 C 2184.9808 10861.165 2184.9808 10863.635 2183.4577 10865.158 C 2181.9347 10866.681 2179.4654 10866.681 2177.9423 10865.158 C 2176.4193 10863.635 2176.4193 10861.165 2177.9423 10859.642 C 2179.4654 10858.119 2181.9347 10858.119 2183.4577 10859.642" stroke="black" stroke-linecap="round" stroke-linejoin="round" stroke-width="1"/>
      </g>
      <g id="Graphic_463">
        <path d="M 2226.6577 10859.642 C 2228.1808 10861.165 2228.1808 10863.635 2226.6577 10865.158 C 2225.1347 10866.681 2222.6654 10866.681 2221.1423 10865.158 C 2219.6193 10863.635 2219.6193 10861.165 2221.1423 10859.642 C 2222.6654 10858.119 2225.1347 10858.119 2226.6577 10859.642" fill="white"/>
        <path d="M 2226.6577 10859.642 C 2228.1808 10861.165 2228.1808 10863.635 2226.6577 10865.158 C 2225.1347 10866.681 2222.6654 10866.681 2221.1423 10865.158 C 2219.6193 10863.635 2219.6193 10861.165 2221.1423 10859.642 C 2222.6654 10858.119 2225.1347 10858.119 2226.6577 10859.642" stroke="black" stroke-linecap="round" stroke-linejoin="round" stroke-width="1"/>
      </g>
      <g id="Graphic_461">
        <path d="M 2269.8577 10859.642 C 2271.3808 10861.165 2271.3808 10863.635 2269.8577 10865.158 C 2268.3347 10866.681 2265.8654 10866.681 2264.3423 10865.158 C 2262.8193 10863.635 2262.8193 10861.165 2264.3423 10859.642 C 2265.8654 10858.119 2268.3347 10858.119 2269.8577 10859.642" fill="white"/>
        <path d="M 2269.8577 10859.642 C 2271.3808 10861.165 2271.3808 10863.635 2269.8577 10865.158 C 2268.3347 10866.681 2265.8654 10866.681 2264.3423 10865.158 C 2262.8193 10863.635 2262.8193 10861.165 2264.3423 10859.642 C 2265.8654 10858.119 2268.3347 10858.119 2269.8577 10859.642" stroke="black" stroke-linecap="round" stroke-linejoin="round" stroke-width="1"/>
      </g>
      <g id="Graphic_459">
        <path d="M 2313.0577 10859.642 C 2314.5808 10861.165 2314.5808 10863.635 2313.0577 10865.158 C 2311.5347 10866.681 2309.0654 10866.681 2307.5423 10865.158 C 2306.0193 10863.635 2306.0193 10861.165 2307.5423 10859.642 C 2309.0654 10858.119 2311.5347 10858.119 2313.0577 10859.642" fill="white"/>
        <path d="M 2313.0577 10859.642 C 2314.5808 10861.165 2314.5808 10863.635 2313.0577 10865.158 C 2311.5347 10866.681 2309.0654 10866.681 2307.5423 10865.158 C 2306.0193 10863.635 2306.0193 10861.165 2307.5423 10859.642 C 2309.0654 10858.119 2311.5347 10858.119 2313.0577 10859.642" stroke="black" stroke-linecap="round" stroke-linejoin="round" stroke-width="1"/>
      </g>
      <g id="Graphic_457">
        <path d="M 2356.2577 10859.642 C 2357.7808 10861.165 2357.7808 10863.635 2356.2577 10865.158 C 2354.7347 10866.681 2352.2654 10866.681 2350.7423 10865.158 C 2349.2193 10863.635 2349.2193 10861.165 2350.7423 10859.642 C 2352.2654 10858.119 2354.7347 10858.119 2356.2577 10859.642" fill="white"/>
        <path d="M 2356.2577 10859.642 C 2357.7808 10861.165 2357.7808 10863.635 2356.2577 10865.158 C 2354.7347 10866.681 2352.2654 10866.681 2350.7423 10865.158 C 2349.2193 10863.635 2349.2193 10861.165 2350.7423 10859.642 C 2352.2654 10858.119 2354.7347 10858.119 2356.2577 10859.642" stroke="black" stroke-linecap="round" stroke-linejoin="round" stroke-width="1"/>
      </g>
      <g id="Graphic_455">
        <path d="M 2399.4577 10859.642 C 2400.9808 10861.165 2400.9808 10863.635 2399.4577 10865.158 C 2397.9347 10866.681 2395.4654 10866.681 2393.9423 10865.158 C 2392.4193 10863.635 2392.4193 10861.165 2393.9423 10859.642 C 2395.4654 10858.119 2397.9347 10858.119 2399.4577 10859.642" fill="white"/>
        <path d="M 2399.4577 10859.642 C 2400.9808 10861.165 2400.9808 10863.635 2399.4577 10865.158 C 2397.9347 10866.681 2395.4654 10866.681 2393.9423 10865.158 C 2392.4193 10863.635 2392.4193 10861.165 2393.9423 10859.642 C 2395.4654 10858.119 2397.9347 10858.119 2399.4577 10859.642" stroke="black" stroke-linecap="round" stroke-linejoin="round" stroke-width="1"/>
      </g>
      <g id="Graphic_453">
        <path d="M 2442.6577 10859.642 C 2444.1808 10861.165 2444.1808 10863.635 2442.6577 10865.158 C 2441.1347 10866.681 2438.6654 10866.681 2437.1423 10865.158 C 2435.6193 10863.635 2435.6193 10861.165 2437.1423 10859.642 C 2438.6654 10858.119 2441.1347 10858.119 2442.6577 10859.642" fill="white"/>
        <path d="M 2442.6577 10859.642 C 2444.1808 10861.165 2444.1808 10863.635 2442.6577 10865.158 C 2441.1347 10866.681 2438.6654 10866.681 2437.1423 10865.158 C 2435.6193 10863.635 2435.6193 10861.165 2437.1423 10859.642 C 2438.6654 10858.119 2441.1347 10858.119 2442.6577 10859.642" stroke="black" stroke-linecap="round" stroke-linejoin="round" stroke-width="1"/>
      </g>
      <g id="Graphic_451">
        <path d="M 2485.8578 10859.642 C 2487.3808 10861.165 2487.3808 10863.635 2485.8578 10865.158 C 2484.3347 10866.681 2481.8654 10866.681 2480.3423 10865.158 C 2478.8193 10863.635 2478.8193 10861.165 2480.3423 10859.642 C 2481.8654 10858.119 2484.3347 10858.119 2485.8578 10859.642" fill="white"/>
        <path d="M 2485.8578 10859.642 C 2487.3808 10861.165 2487.3808 10863.635 2485.8578 10865.158 C 2484.3347 10866.681 2481.8654 10866.681 2480.3423 10865.158 C 2478.8193 10863.635 2478.8193 10861.165 2480.3423 10859.642 C 2481.8654 10858.119 2484.3347 10858.119 2485.8578 10859.642" stroke="black" stroke-linecap="round" stroke-linejoin="round" stroke-width="1"/>
      </g>
      <g id="Graphic_449">
        <path d="M 2529.0578 10859.642 C 2530.5808 10861.165 2530.5808 10863.635 2529.0578 10865.158 C 2527.5347 10866.681 2525.0654 10866.681 2523.5423 10865.158 C 2522.0193 10863.635 2522.0193 10861.165 2523.5423 10859.642 C 2525.0654 10858.119 2527.5347 10858.119 2529.0578 10859.642" fill="white"/>
        <path d="M 2529.0578 10859.642 C 2530.5808 10861.165 2530.5808 10863.635 2529.0578 10865.158 C 2527.5347 10866.681 2525.0654 10866.681 2523.5423 10865.158 C 2522.0193 10863.635 2522.0193 10861.165 2523.5423 10859.642 C 2525.0654 10858.119 2527.5347 10858.119 2529.0578 10859.642" stroke="black" stroke-linecap="round" stroke-linejoin="round" stroke-width="1"/>
      </g>
      <g id="Graphic_447">
        <path d="M 2572.2578 10859.642 C 2573.7808 10861.165 2573.7808 10863.635 2572.2578 10865.158 C 2570.7347 10866.681 2568.2654 10866.681 2566.7423 10865.158 C 2565.2193 10863.635 2565.2193 10861.165 2566.7423 10859.642 C 2568.2654 10858.119 2570.7347 10858.119 2572.2578 10859.642" fill="white"/>
        <path d="M 2572.2578 10859.642 C 2573.7808 10861.165 2573.7808 10863.635 2572.2578 10865.158 C 2570.7347 10866.681 2568.2654 10866.681 2566.7423 10865.158 C 2565.2193 10863.635 2565.2193 10861.165 2566.7423 10859.642 C 2568.2654 10858.119 2570.7347 10858.119 2572.2578 10859.642" stroke="black" stroke-linecap="round" stroke-linejoin="round" stroke-width="1"/>
      </g>
      <g id="Graphic_445">
        <path d="M 2615.4578 10859.642 C 2616.9808 10861.165 2616.9808 10863.635 2615.4578 10865.158 C 2613.9347 10866.681 2611.4654 10866.681 2609.9423 10865.158 C 2608.4193 10863.635 2608.4193 10861.165 2609.9423 10859.642 C 2611.4654 10858.119 2613.9347 10858.119 2615.4578 10859.642" fill="white"/>
        <path d="M 2615.4578 10859.642 C 2616.9808 10861.165 2616.9808 10863.635 2615.4578 10865.158 C 2613.9347 10866.681 2611.4654 10866.681 2609.9423 10865.158 C 2608.4193 10863.635 2608.4193 10861.165 2609.9423 10859.642 C 2611.4654 10858.119 2613.9347 10858.119 2615.4578 10859.642" stroke="black" stroke-linecap="round" stroke-linejoin="round" stroke-width="1"/>
      </g>
      <g id="Graphic_443">
        <path d="M 2658.6578 10859.642 C 2660.1808 10861.165 2660.1808 10863.635 2658.6578 10865.158 C 2657.1347 10866.681 2654.6654 10866.681 2653.1423 10865.158 C 2651.6193 10863.635 2651.6193 10861.165 2653.1423 10859.642 C 2654.6654 10858.119 2657.1347 10858.119 2658.6578 10859.642" fill="white"/>
        <path d="M 2658.6578 10859.642 C 2660.1808 10861.165 2660.1808 10863.635 2658.6578 10865.158 C 2657.1347 10866.681 2654.6654 10866.681 2653.1423 10865.158 C 2651.6193 10863.635 2651.6193 10861.165 2653.1423 10859.642 C 2654.6654 10858.119 2657.1347 10858.119 2658.6578 10859.642" stroke="black" stroke-linecap="round" stroke-linejoin="round" stroke-width="1"/>
      </g>
      <g id="Graphic_441">
        <path d="M 2701.8578 10859.642 C 2703.3808 10861.165 2703.3808 10863.635 2701.8578 10865.158 C 2700.3347 10866.681 2697.8654 10866.681 2696.3423 10865.158 C 2694.8193 10863.635 2694.8193 10861.165 2696.3423 10859.642 C 2697.8654 10858.119 2700.3347 10858.119 2701.8578 10859.642" fill="white"/>
        <path d="M 2701.8578 10859.642 C 2703.3808 10861.165 2703.3808 10863.635 2701.8578 10865.158 C 2700.3347 10866.681 2697.8654 10866.681 2696.3423 10865.158 C 2694.8193 10863.635 2694.8193 10861.165 2696.3423 10859.642 C 2697.8654 10858.119 2700.3347 10858.119 2701.8578 10859.642" stroke="black" stroke-linecap="round" stroke-linejoin="round" stroke-width="1"/>
      </g>
      <g id="Graphic_439">
        <path d="M 2745.0578 10859.642 C 2746.5808 10861.165 2746.5808 10863.635 2745.0578 10865.158 C 2743.5347 10866.681 2741.0654 10866.681 2739.5423 10865.158 C 2738.0193 10863.635 2738.0193 10861.165 2739.5423 10859.642 C 2741.0654 10858.119 2743.5347 10858.119 2745.0578 10859.642" fill="white"/>
        <path d="M 2745.0578 10859.642 C 2746.5808 10861.165 2746.5808 10863.635 2745.0578 10865.158 C 2743.5347 10866.681 2741.0654 10866.681 2739.5423 10865.158 C 2738.0193 10863.635 2738.0193 10861.165 2739.5423 10859.642 C 2741.0654 10858.119 2743.5347 10858.119 2745.0578 10859.642" stroke="black" stroke-linecap="round" stroke-linejoin="round" stroke-width="1"/>
      </g>
      <g id="Graphic_437">
        <path d="M 2788.2578 10859.642 C 2789.7808 10861.165 2789.7808 10863.635 2788.2578 10865.158 C 2786.7347 10866.681 2784.2654 10866.681 2782.7423 10865.158 C 2781.2193 10863.635 2781.2193 10861.165 2782.7423 10859.642 C 2784.2654 10858.119 2786.7347 10858.119 2788.2578 10859.642" fill="white"/>
        <path d="M 2788.2578 10859.642 C 2789.7808 10861.165 2789.7808 10863.635 2788.2578 10865.158 C 2786.7347 10866.681 2784.2654 10866.681 2782.7423 10865.158 C 2781.2193 10863.635 2781.2193 10861.165 2782.7423 10859.642 C 2784.2654 10858.119 2786.7347 10858.119 2788.2578 10859.642" stroke="black" stroke-linecap="round" stroke-linejoin="round" stroke-width="1"/>
      </g>
      <g id="Graphic_435">
        <path d="M 2831.4578 10859.642 C 2832.9808 10861.165 2832.9808 10863.635 2831.4578 10865.158 C 2829.9347 10866.681 2827.4654 10866.681 2825.9423 10865.158 C 2824.4193 10863.635 2824.4193 10861.165 2825.9423 10859.642 C 2827.4654 10858.119 2829.9347 10858.119 2831.4578 10859.642" fill="white"/>
        <path d="M 2831.4578 10859.642 C 2832.9808 10861.165 2832.9808 10863.635 2831.4578 10865.158 C 2829.9347 10866.681 2827.4654 10866.681 2825.9423 10865.158 C 2824.4193 10863.635 2824.4193 10861.165 2825.9423 10859.642 C 2827.4654 10858.119 2829.9347 10858.119 2831.4578 10859.642" stroke="black" stroke-linecap="round" stroke-linejoin="round" stroke-width="1"/>
      </g>
      <g id="Graphic_433">
        <path d="M 2874.6578 10859.642 C 2876.1808 10861.165 2876.1808 10863.635 2874.6578 10865.158 C 2873.1347 10866.681 2870.6654 10866.681 2869.1423 10865.158 C 2867.6193 10863.635 2867.6193 10861.165 2869.1423 10859.642 C 2870.6654 10858.119 2873.1347 10858.119 2874.6578 10859.642" fill="white"/>
        <path d="M 2874.6578 10859.642 C 2876.1808 10861.165 2876.1808 10863.635 2874.6578 10865.158 C 2873.1347 10866.681 2870.6654 10866.681 2869.1423 10865.158 C 2867.6193 10863.635 2867.6193 10861.165 2869.1423 10859.642 C 2870.6654 10858.119 2873.1347 10858.119 2874.6578 10859.642" stroke="black" stroke-linecap="round" stroke-linejoin="round" stroke-width="1"/>
      </g>
      <g id="Graphic_431">
        <path d="M 2917.8578 10859.642 C 2919.3808 10861.165 2919.3808 10863.635 2917.8578 10865.158 C 2916.3347 10866.681 2913.8654 10866.681 2912.3423 10865.158 C 2910.8193 10863.635 2910.8193 10861.165 2912.3423 10859.642 C 2913.8654 10858.119 2916.3347 10858.119 2917.8578 10859.642" fill="white"/>
        <path d="M 2917.8578 10859.642 C 2919.3808 10861.165 2919.3808 10863.635 2917.8578 10865.158 C 2916.3347 10866.681 2913.8654 10866.681 2912.3423 10865.158 C 2910.8193 10863.635 2910.8193 10861.165 2912.3423 10859.642 C 2913.8654 10858.119 2916.3347 10858.119 2917.8578 10859.642" stroke="black" stroke-linecap="round" stroke-linejoin="round" stroke-width="1"/>
      </g>
      <g id="Graphic_525">
        <circle cx="1575.9" cy="10827.5" r="3.90000628993182" fill="white"/>
        <circle cx="1575.9" cy="10827.5" r="3.90000628993182" stroke="black" stroke-linecap="round" stroke-linejoin="round" stroke-width="1"/>
      </g>
      <g id="Graphic_523">
        <circle cx="1662.3" cy="10827.5" r="3.90000628993179" fill="white"/>
        <circle cx="1662.3" cy="10827.5" r="3.90000628993179" stroke="black" stroke-linecap="round" stroke-linejoin="round" stroke-width="1"/>
      </g>
      <g id="Graphic_521">
        <circle cx="1748.7" cy="10827.5" r="3.9000062899317" fill="white"/>
        <circle cx="1748.7" cy="10827.5" r="3.9000062899317" stroke="black" stroke-linecap="round" stroke-linejoin="round" stroke-width="1"/>
      </g>
      <g id="Graphic_519">
        <circle cx="1835.1" cy="10827.5" r="3.90000628993179" fill="white"/>
        <circle cx="1835.1" cy="10827.5" r="3.90000628993179" stroke="black" stroke-linecap="round" stroke-linejoin="round" stroke-width="1"/>
      </g>
      <g id="Graphic_517">
        <circle cx="1921.5" cy="10827.5" r="3.90000628993173" fill="white"/>
        <circle cx="1921.5" cy="10827.5" r="3.90000628993173" stroke="black" stroke-linecap="round" stroke-linejoin="round" stroke-width="1"/>
      </g>
      <g id="Graphic_515">
        <circle cx="2007.9" cy="10827.5" r="3.90000628993176" fill="white"/>
        <circle cx="2007.9" cy="10827.5" r="3.90000628993176" stroke="black" stroke-linecap="round" stroke-linejoin="round" stroke-width="1"/>
      </g>
      <g id="Graphic_513">
        <circle cx="2094.3" cy="10827.5" r="3.90000628993185" fill="white"/>
        <circle cx="2094.3" cy="10827.5" r="3.90000628993185" stroke="black" stroke-linecap="round" stroke-linejoin="round" stroke-width="1"/>
      </g>
      <g id="Graphic_511">
        <circle cx="2180.7" cy="10827.5" r="3.90000628993188" fill="white"/>
        <circle cx="2180.7" cy="10827.5" r="3.90000628993188" stroke="black" stroke-linecap="round" stroke-linejoin="round" stroke-width="1"/>
      </g>
      <g id="Graphic_509">
        <circle cx="2267.1" cy="10827.5" r="3.90000628993188" fill="white"/>
        <circle cx="2267.1" cy="10827.5" r="3.90000628993188" stroke="black" stroke-linecap="round" stroke-linejoin="round" stroke-width="1"/>
      </g>
      <g id="Graphic_507">
        <circle cx="2353.5" cy="10827.5" r="3.90000628993188" fill="white"/>
        <circle cx="2353.5" cy="10827.5" r="3.90000628993188" stroke="black" stroke-linecap="round" stroke-linejoin="round" stroke-width="1"/>
      </g>
      <g id="Graphic_505">
        <circle cx="2439.9" cy="10827.5" r="3.90000628993182" fill="white"/>
        <circle cx="2439.9" cy="10827.5" r="3.90000628993182" stroke="black" stroke-linecap="round" stroke-linejoin="round" stroke-width="1"/>
      </g>
      <g id="Graphic_503">
        <circle cx="2526.3" cy="10827.5" r="3.90000628993188" fill="white"/>
        <circle cx="2526.3" cy="10827.5" r="3.90000628993188" stroke="black" stroke-linecap="round" stroke-linejoin="round" stroke-width="1"/>
      </g>
      <g id="Graphic_501">
        <circle cx="2612.7" cy="10827.5" r="3.90000628993188" fill="white"/>
        <circle cx="2612.7" cy="10827.5" r="3.90000628993188" stroke="black" stroke-linecap="round" stroke-linejoin="round" stroke-width="1"/>
      </g>
      <g id="Graphic_499">
        <circle cx="2699.1" cy="10827.5" r="3.90000628993188" fill="white"/>
        <circle cx="2699.1" cy="10827.5" r="3.90000628993188" stroke="black" stroke-linecap="round" stroke-linejoin="round" stroke-width="1"/>
      </g>
      <g id="Graphic_497">
        <circle cx="2785.5" cy="10827.5" r="3.90000628993194" fill="white"/>
        <circle cx="2785.5" cy="10827.5" r="3.90000628993194" stroke="black" stroke-linecap="round" stroke-linejoin="round" stroke-width="1"/>
      </g>
      <g id="Graphic_495">
        <circle cx="2871.9" cy="10827.5" r="3.90000628993194" fill="white"/>
        <circle cx="2871.9" cy="10827.5" r="3.90000628993194" stroke="black" stroke-linecap="round" stroke-linejoin="round" stroke-width="1"/>
      </g>
      <g id="Graphic_541">
        <path d="M 1578.6577 10789.842 C 1580.1808 10791.365 1580.1808 10793.834 1578.6577 10795.357 C 1577.1347 10796.88 1574.6654 10796.88 1573.1423 10795.357 C 1571.6193 10793.834 1571.6193 10791.365 1573.1423 10789.842 C 1574.6654 10788.319 1577.1347 10788.319 1578.6577 10789.842" fill="white"/>
        <path d="M 1578.6577 10789.842 C 1580.1808 10791.365 1580.1808 10793.834 1578.6577 10795.357 C 1577.1347 10796.88 1574.6654 10796.88 1573.1423 10795.357 C 1571.6193 10793.834 1571.6193 10791.365 1573.1423 10789.842 C 1574.6654 10788.319 1577.1347 10788.319 1578.6577 10789.842" stroke="black" stroke-linecap="round" stroke-linejoin="round" stroke-width="1"/>
      </g>
      <g id="Graphic_539">
        <path d="M 1751.4577 10789.842 C 1752.9808 10791.365 1752.9808 10793.834 1751.4577 10795.357 C 1749.9347 10796.88 1747.4654 10796.88 1745.9423 10795.357 C 1744.4193 10793.834 1744.4193 10791.365 1745.9423 10789.842 C 1747.4654 10788.319 1749.9347 10788.319 1751.4577 10789.842" fill="white"/>
        <path d="M 1751.4577 10789.842 C 1752.9808 10791.365 1752.9808 10793.834 1751.4577 10795.357 C 1749.9347 10796.88 1747.4654 10796.88 1745.9423 10795.357 C 1744.4193 10793.834 1744.4193 10791.365 1745.9423 10789.842 C 1747.4654 10788.319 1749.9347 10788.319 1751.4577 10789.842" stroke="black" stroke-linecap="round" stroke-linejoin="round" stroke-width="1"/>
      </g>
      <g id="Graphic_537">
        <path d="M 1924.2577 10789.842 C 1925.7808 10791.365 1925.7808 10793.834 1924.2577 10795.357 C 1922.7347 10796.88 1920.2654 10796.88 1918.7423 10795.357 C 1917.2193 10793.834 1917.2193 10791.365 1918.7423 10789.842 C 1920.2654 10788.319 1922.7347 10788.319 1924.2577 10789.842" fill="white"/>
        <path d="M 1924.2577 10789.842 C 1925.7808 10791.365 1925.7808 10793.834 1924.2577 10795.357 C 1922.7347 10796.88 1920.2654 10796.88 1918.7423 10795.357 C 1917.2193 10793.834 1917.2193 10791.365 1918.7423 10789.842 C 1920.2654 10788.319 1922.7347 10788.319 1924.2577 10789.842" stroke="black" stroke-linecap="round" stroke-linejoin="round" stroke-width="1"/>
      </g>
      <g id="Graphic_535">
        <path d="M 2097.0577 10789.842 C 2098.5808 10791.365 2098.5808 10793.834 2097.0577 10795.357 C 2095.5347 10796.88 2093.0654 10796.88 2091.5423 10795.357 C 2090.0193 10793.834 2090.0193 10791.365 2091.5423 10789.842 C 2093.0654 10788.319 2095.5347 10788.319 2097.0577 10789.842" fill="white"/>
        <path d="M 2097.0577 10789.842 C 2098.5808 10791.365 2098.5808 10793.834 2097.0577 10795.357 C 2095.5347 10796.88 2093.0654 10796.88 2091.5423 10795.357 C 2090.0193 10793.834 2090.0193 10791.365 2091.5423 10789.842 C 2093.0654 10788.319 2095.5347 10788.319 2097.0577 10789.842" stroke="black" stroke-linecap="round" stroke-linejoin="round" stroke-width="1"/>
      </g>
      <g id="Graphic_533">
        <path d="M 2269.8577 10789.842 C 2271.3808 10791.365 2271.3808 10793.834 2269.8577 10795.357 C 2268.3347 10796.88 2265.8654 10796.88 2264.3423 10795.357 C 2262.8193 10793.834 2262.8193 10791.365 2264.3423 10789.842 C 2265.8654 10788.319 2268.3347 10788.319 2269.8577 10789.842" fill="white"/>
        <path d="M 2269.8577 10789.842 C 2271.3808 10791.365 2271.3808 10793.834 2269.8577 10795.357 C 2268.3347 10796.88 2265.8654 10796.88 2264.3423 10795.357 C 2262.8193 10793.834 2262.8193 10791.365 2264.3423 10789.842 C 2265.8654 10788.319 2268.3347 10788.319 2269.8577 10789.842" stroke="black" stroke-linecap="round" stroke-linejoin="round" stroke-width="1"/>
      </g>
      <g id="Graphic_531">
        <path d="M 2442.6577 10789.842 C 2444.1808 10791.365 2444.1808 10793.834 2442.6577 10795.357 C 2441.1347 10796.88 2438.6654 10796.88 2437.1423 10795.357 C 2435.6193 10793.834 2435.6193 10791.365 2437.1423 10789.842 C 2438.6654 10788.319 2441.1347 10788.319 2442.6577 10789.842" fill="white"/>
        <path d="M 2442.6577 10789.842 C 2444.1808 10791.365 2444.1808 10793.834 2442.6577 10795.357 C 2441.1347 10796.88 2438.6654 10796.88 2437.1423 10795.357 C 2435.6193 10793.834 2435.6193 10791.365 2437.1423 10789.842 C 2438.6654 10788.319 2441.1347 10788.319 2442.6577 10789.842" stroke="black" stroke-linecap="round" stroke-linejoin="round" stroke-width="1"/>
      </g>
      <g id="Graphic_529">
        <path d="M 2615.4578 10789.842 C 2616.9808 10791.365 2616.9808 10793.834 2615.4578 10795.357 C 2613.9347 10796.88 2611.4654 10796.88 2609.9423 10795.357 C 2608.4193 10793.834 2608.4193 10791.365 2609.9423 10789.842 C 2611.4654 10788.319 2613.9347 10788.319 2615.4578 10789.842" fill="white"/>
        <path d="M 2615.4578 10789.842 C 2616.9808 10791.365 2616.9808 10793.834 2615.4578 10795.357 C 2613.9347 10796.88 2611.4654 10796.88 2609.9423 10795.357 C 2608.4193 10793.834 2608.4193 10791.365 2609.9423 10789.842 C 2611.4654 10788.319 2613.9347 10788.319 2615.4578 10789.842" stroke="black" stroke-linecap="round" stroke-linejoin="round" stroke-width="1"/>
      </g>
      <g id="Graphic_527">
        <path d="M 2788.2578 10789.842 C 2789.7808 10791.365 2789.7808 10793.834 2788.2578 10795.357 C 2786.7347 10796.88 2784.2654 10796.88 2782.7423 10795.357 C 2781.2193 10793.834 2781.2193 10791.365 2782.7423 10789.842 C 2784.2654 10788.319 2786.7347 10788.319 2788.2578 10789.842" fill="white"/>
        <path d="M 2788.2578 10789.842 C 2789.7808 10791.365 2789.7808 10793.834 2788.2578 10795.357 C 2786.7347 10796.88 2784.2654 10796.88 2782.7423 10795.357 C 2781.2193 10793.834 2781.2193 10791.365 2782.7423 10789.842 C 2784.2654 10788.319 2786.7347 10788.319 2788.2578 10789.842" stroke="black" stroke-linecap="round" stroke-linejoin="round" stroke-width="1"/>
      </g>
      <g id="Graphic_549">
        <path d="M 1578.6577 10754.942 C 1580.1808 10756.465 1580.1808 10758.934 1578.6577 10760.457 C 1577.1347 10761.98 1574.6654 10761.98 1573.1423 10760.457 C 1571.6193 10758.934 1571.6193 10756.465 1573.1423 10754.942 C 1574.6654 10753.419 1577.1347 10753.419 1578.6577 10754.942" fill="white"/>
        <path d="M 1578.6577 10754.942 C 1580.1808 10756.465 1580.1808 10758.934 1578.6577 10760.457 C 1577.1347 10761.98 1574.6654 10761.98 1573.1423 10760.457 C 1571.6193 10758.934 1571.6193 10756.465 1573.1423 10754.942 C 1574.6654 10753.419 1577.1347 10753.419 1578.6577 10754.942" stroke="black" stroke-linecap="round" stroke-linejoin="round" stroke-width="1"/>
      </g>
      <g id="Graphic_547">
        <path d="M 1924.2577 10754.942 C 1925.7808 10756.465 1925.7808 10758.934 1924.2577 10760.457 C 1922.7347 10761.98 1920.2654 10761.98 1918.7423 10760.457 C 1917.2193 10758.934 1917.2193 10756.465 1918.7423 10754.942 C 1920.2654 10753.419 1922.7347 10753.419 1924.2577 10754.942" fill="white"/>
        <path d="M 1924.2577 10754.942 C 1925.7808 10756.465 1925.7808 10758.934 1924.2577 10760.457 C 1922.7347 10761.98 1920.2654 10761.98 1918.7423 10760.457 C 1917.2193 10758.934 1917.2193 10756.465 1918.7423 10754.942 C 1920.2654 10753.419 1922.7347 10753.419 1924.2577 10754.942" stroke="black" stroke-linecap="round" stroke-linejoin="round" stroke-width="1"/>
      </g>
      <g id="Graphic_545">
        <path d="M 2269.8577 10754.942 C 2271.3808 10756.465 2271.3808 10758.934 2269.8577 10760.457 C 2268.3347 10761.98 2265.8654 10761.98 2264.3423 10760.457 C 2262.8193 10758.934 2262.8193 10756.465 2264.3423 10754.942 C 2265.8654 10753.419 2268.3347 10753.419 2269.8577 10754.942" fill="white"/>
        <path d="M 2269.8577 10754.942 C 2271.3808 10756.465 2271.3808 10758.934 2269.8577 10760.457 C 2268.3347 10761.98 2265.8654 10761.98 2264.3423 10760.457 C 2262.8193 10758.934 2262.8193 10756.465 2264.3423 10754.942 C 2265.8654 10753.419 2268.3347 10753.419 2269.8577 10754.942" stroke="black" stroke-linecap="round" stroke-linejoin="round" stroke-width="1"/>
      </g>
      <g id="Graphic_543">
        <path d="M 2615.4578 10754.942 C 2616.9808 10756.465 2616.9808 10758.934 2615.4578 10760.457 C 2613.9347 10761.98 2611.4654 10761.98 2609.9423 10760.457 C 2608.4193 10758.934 2608.4193 10756.465 2609.9423 10754.942 C 2611.4654 10753.419 2613.9347 10753.419 2615.4578 10754.942" fill="white"/>
        <path d="M 2615.4578 10754.942 C 2616.9808 10756.465 2616.9808 10758.934 2615.4578 10760.457 C 2613.9347 10761.98 2611.4654 10761.98 2609.9423 10760.457 C 2608.4193 10758.934 2608.4193 10756.465 2609.9423 10754.942 C 2611.4654 10753.419 2613.9347 10753.419 2615.4578 10754.942" stroke="black" stroke-linecap="round" stroke-linejoin="round" stroke-width="1"/>
      </g>
      <g id="Graphic_553">
        <circle cx="1575.9" cy="10722.799" r="3.90000628993197" fill="white"/>
        <circle cx="1575.9" cy="10722.799" r="3.90000628993197" stroke="black" stroke-linecap="round" stroke-linejoin="round" stroke-width="1"/>
      </g>
      <g id="Graphic_551">
        <circle cx="2267.1" cy="10722.799" r="3.90000628993212" fill="white"/>
        <circle cx="2267.1" cy="10722.799" r="3.90000628993212" stroke="black" stroke-linecap="round" stroke-linejoin="round" stroke-width="1"/>
      </g>
      <g id="Line_554">
        <line x1="1579.8" y1="10722.799" x2="2258" y2="10722.799" marker-end="url(#FilledArrow_Marker)" stroke="black" stroke-linecap="round" stroke-linejoin="round" stroke-width=".5"/>
      </g>
      <g id="Line_555">
        <line x1="2267.1" y1="10726.699" x2="2267.1" y2="10748.6" marker-end="url(#FilledArrow_Marker)" stroke="black" stroke-linecap="round" stroke-linejoin="round" stroke-width=".5"/>
      </g>
      <g id="Line_556">
        <line x1="2271" y1="10757.7" x2="2603.6" y2="10757.7" marker-end="url(#FilledArrow_Marker)" stroke="black" stroke-linecap="round" stroke-linejoin="round" stroke-width=".5"/>
      </g>
      <g id="Line_557">
        <line x1="2612.7" y1="10761.6" x2="2612.7" y2="10783.5" marker-end="url(#FilledArrow_Marker)" stroke="black" stroke-linecap="round" stroke-linejoin="round" stroke-width=".5"/>
      </g>
      <g id="Line_558">
        <line x1="2616.6" y1="10792.6" x2="2776.4" y2="10792.6" marker-end="url(#FilledArrow_Marker)" stroke="black" stroke-linecap="round" stroke-linejoin="round" stroke-width=".5"/>
      </g>
      <g id="Line_559">
        <line x1="2785.5" y1="10796.5" x2="2785.5" y2="10818.4" marker-end="url(#FilledArrow_Marker)" stroke="black" stroke-linecap="round" stroke-linejoin="round" stroke-width=".5"/>
      </g>
      <g id="Line_560">
        <line x1="2789.4" y1="10827.5" x2="2862.8" y2="10827.5" marker-end="url(#FilledArrow_Marker)" stroke="black" stroke-linecap="round" stroke-linejoin="round" stroke-width=".5"/>
      </g>
      <g id="Line_561">
        <line x1="2871.9" y1="10831.4" x2="2871.9" y2="10853.3" marker-end="url(#FilledArrow_Marker)" stroke="black" stroke-linecap="round" stroke-linejoin="round" stroke-width=".5"/>
      </g>
      <g id="Line_562">
        <line x1="2871.9" y1="10866.3" x2="2871.9" y2="10888.2" marker-end="url(#FilledArrow_Marker)" stroke="black" stroke-linecap="round" stroke-linejoin="round" stroke-width=".5"/>
      </g>
      <g id="Line_563">
        <line x1="2875.8" y1="10897.3" x2="2884.4" y2="10897.3" marker-end="url(#FilledArrow_Marker)" stroke="black" stroke-linecap="round" stroke-linejoin="round" stroke-width=".5"/>
      </g>
    </g>
  </g>
</svg>
